<?xml version="1.0" encoding="UTF-8" standalone="no"?>
<!-- Created with Inkscape (http://www.inkscape.org/) -->

<svg
   xmlns:dc="http://purl.org/dc/elements/1.1/"
   xmlns:cc="http://creativecommons.org/ns#"
   xmlns:rdf="http://www.w3.org/1999/02/22-rdf-syntax-ns#"
   xmlns:svg="http://www.w3.org/2000/svg"
   xmlns="http://www.w3.org/2000/svg"
   xmlns:sodipodi="http://sodipodi.sourceforge.net/DTD/sodipodi-0.dtd"
   xmlns:inkscape="http://www.inkscape.org/namespaces/inkscape"
   width="257.14285"
   height="290"
   id="svg2"
   version="1.1"
   inkscape:version="0.48.0 r9654"
   sodipodi:docname="penjat11.svg">
  <defs
     id="defs4" />
  <sodipodi:namedview
     id="base"
     pagecolor="#ffffff"
     bordercolor="#666666"
     borderopacity="1.0"
     inkscape:pageopacity="0.0"
     inkscape:pageshadow="2"
     inkscape:zoom="1.4142136"
     inkscape:cx="115.83562"
     inkscape:cy="203.78709"
     inkscape:document-units="px"
     inkscape:current-layer="capa1"
     showgrid="false"
     fit-margin-top="0"
     fit-margin-left="0"
     fit-margin-right="0"
     fit-margin-bottom="0"
     inkscape:window-width="1366"
     inkscape:window-height="691"
     inkscape:window-x="0"
     inkscape:window-y="24"
     inkscape:window-maximized="1" />
  <metadata
     id="metadata7">
    <rdf:RDF>
      <cc:Work
         rdf:about="">
        <dc:format>image/svg+xml</dc:format>
        <dc:type
           rdf:resource="http://purl.org/dc/dcmitype/StillImage" />
        <dc:title></dc:title>
      </cc:Work>
    </rdf:RDF>
  </metadata>
  <g
     inkscape:label="Capa 1"
     inkscape:groupmode="layer"
     id="capa1"
     transform="translate(-140,-375.21933)">
    <rect
       style="fill:#000000;fill-opacity:1;stroke:none"
       id="rect2985"
       width="201.42856"
       height="15.714286"
       x="172"
       y="611.64789" />
    <rect
       y="172"
       x="-611.64789"
       height="15.714286"
       width="201.42856"
       id="rect3818"
       style="fill:#000000;fill-opacity:1;stroke:none"
       transform="matrix(0,-1,1,0,0,0)" />
    <rect
       y="410.23224"
       x="172"
       height="15.714286"
       width="161.83058"
       id="rect3839"
       style="fill:#000000;fill-opacity:1;stroke:none" />
    <rect
       y="459.9678"
       x="-212.40941"
       height="8.9876156"
       width="92.557251"
       id="rect3839-7"
       style="fill:#000000;fill-opacity:1;stroke:none"
       transform="matrix(0.70710678,-0.70710678,0.70710678,0.70710678,0,0)" />
    <rect
       y="313.64362"
       x="-458.34216"
       height="9.8016691"
       width="40.915318"
       id="rect3818-8"
       style="fill:#000000;fill-opacity:1;stroke:none"
       transform="matrix(0,-1,1,0,0,0)" />
    <path
       sodipodi:type="arc"
       style="fill:#000000;fill-opacity:1;stroke:none"
       id="path3980"
       sodipodi:cx="185.26198"
       sodipodi:cy="117.46594"
       sodipodi:rx="27.577164"
       sodipodi:ry="27.577164"
       d="m 212.83914,117.46594 a 27.577164,27.577164 0 1 1 -55.15433,0 27.577164,27.577164 0 1 1 55.15433,0 z"
       transform="matrix(0.84615384,0,0,0.84615384,161.59499,370.78859)" />
    <rect
       y="313.86929"
       x="-554.50867"
       height="8.643218"
       width="71.320908"
       id="rect3818-88"
       style="fill:#000000;fill-opacity:1;stroke:none"
       transform="matrix(0,-1,1,0,0,0)" />
    <rect
       y="603.9104"
       x="-216.2973"
       height="6.6434593"
       width="68.416397"
       id="rect3839-7-5"
       style="fill:#000000;fill-opacity:1;stroke:none"
       transform="matrix(0.69283471,-0.72109643,0.69283471,0.72109643,0,0)" />
    <rect
       y="-178.65277"
       x="-680.2171"
       height="6.6434593"
       width="68.416397"
       id="rect3839-7-5-4"
       style="fill:#000000;fill-opacity:1;stroke:none"
       transform="matrix(-0.72109643,-0.69283471,0.72109643,-0.69283471,0,0)"
       inkscape:transform-center-x="27.062697"
       inkscape:transform-center-y="-41.7193" />
    <rect
       y="501.79868"
       x="274.75226"
       height="7.2290044"
       width="43.743752"
       id="rect3839-3"
       style="fill:#000000;fill-opacity:1;stroke:none" />
    <rect
       style="fill:#000000;fill-opacity:1;stroke:none"
       id="rect4198"
       width="43.743752"
       height="7.2290044"
       x="317.17865"
       y="501.79868" />
    <path
       style="fill:none;stroke:#000000;stroke-width:1px;stroke-linecap:butt;stroke-linejoin:miter;stroke-opacity:1"
       d="m 164.5,106 c 8,-7.499999 0,0 0,0 z"
       id="path4254"
       inkscape:connector-curvature="0"
       transform="translate(140,375.21933)" />
    <path
       sodipodi:type="spiral"
       style="fill:none;stroke:#ffffff;stroke-width:1px;stroke-linecap:butt;stroke-linejoin:miter;stroke-opacity:1"
       id="path4278"
       sodipodi:cx="123.75"
       sodipodi:cy="159"
       sodipodi:expansion="1"
       sodipodi:revolution="0.50999999"
       sodipodi:radius="18.922539"
       sodipodi:argument="-3.9617925"
       sodipodi:t0="0.66900003"
       d="M 120.65198,146.72575 C 125.41914,142.84146 132.32358,143.09816 137.5,146"
       transform="translate(189,337.21933)" />
    <path
       sodipodi:type="arc"
       style="fill:#ffffff;fill-opacity:1;stroke:#ffffff;stroke-width:4.01599979;stroke-miterlimit:4;stroke-opacity:1;stroke-dasharray:none"
       id="path4280"
       sodipodi:cx="165.75"
       sodipodi:cy="85.5"
       sodipodi:rx="1.75"
       sodipodi:ry="1.25"
       d="m 167.5,85.5 a 1.75,1.25 0 1 1 -3.5,0 1.75,1.25 0 1 1 3.5,0 z"
       transform="matrix(0.53432676,0,0,0.53432676,219.18534,415.03439)" />
    <path
       sodipodi:type="arc"
       style="fill:#ffffff;fill-opacity:1;stroke:#ffffff;stroke-width:4.01599979;stroke-miterlimit:4;stroke-opacity:1;stroke-dasharray:none"
       id="path4280-6"
       sodipodi:cx="165.75"
       sodipodi:cy="85.5"
       sodipodi:rx="1.75"
       sodipodi:ry="1.25"
       d="m 167.5,85.5 a 1.75,1.25 0 1 1 -3.5,0 1.75,1.25 0 1 1 3.5,0 z"
       transform="matrix(0.53432676,0,0,0.53432676,240.18534,415.03439)" />
  </g>
</svg>
